HIERARCHY
ROOT Hips
{
	OFFSET 0.0000 0.0000 0.0000
	CHANNELS 6 Xposition Yposition Zposition Zrotation Xrotation Yrotation
	JOINT Ab
	{
		OFFSET -0.0000 8.0846 -0.0000
		CHANNELS 3 Zrotation Xrotation Yrotation
		JOINT Chest
		{
			OFFSET -0.0000 25.0068 -0.0000
			CHANNELS 3 Zrotation Xrotation Yrotation
			JOINT Neck
			{
				OFFSET -0.0000 25.0068 0.0000
				CHANNELS 3 Zrotation Xrotation Yrotation
				JOINT Head
				{
					OFFSET -0.0000 10.7556 0.0000
					CHANNELS 3 Zrotation Xrotation Yrotation
					End Site
					{
						OFFSET -0.0000 16.6222 0.0000
					}
				}
			}
			JOINT LeftCollar
			{
				OFFSET -0.0000 25.0068 0.0000
				CHANNELS 3 Zrotation Xrotation Yrotation
				JOINT LeftShoulder
				{
					OFFSET 19.5556 -0.0000 0.0000
					CHANNELS 3 Zrotation Xrotation Yrotation
					JOINT LeftElbow
					{
						OFFSET 27.1828 0.0000 0.0000
						CHANNELS 3 Zrotation Xrotation Yrotation
						JOINT LeftWrist
						{
							OFFSET 23.3157 0.0000 0.0000
							CHANNELS 3 Zrotation Xrotation Yrotation
							End Site
							{
								OFFSET 0.0000 -14.6667 0.0000
							}
						}
					}
				}
			}
			JOINT RightCollar
			{
				OFFSET -0.0000 25.0068 0.0000
				CHANNELS 3 Zrotation Xrotation Yrotation
				JOINT RightShoulder
				{
					OFFSET -19.5556 0.0000 0.0000
					CHANNELS 3 Zrotation Xrotation Yrotation
					JOINT RightElbow
					{
						OFFSET -27.1828 0.0000 0.0000
						CHANNELS 3 Zrotation Xrotation Yrotation
						JOINT RightWrist
						{
							OFFSET -23.3157 0.0000 0.0000
							CHANNELS 3 Zrotation Xrotation Yrotation
							End Site
							{
								OFFSET -0.0000 -14.6667 0.0000
							}
						}
					}
				}
			}
		}
	}
	JOINT LeftHip
	{
		OFFSET 11.7333 0.0000 0.0000
		CHANNELS 3 Zrotation Xrotation Yrotation
		JOINT LeftKnee
		{
			OFFSET -0.0000 -40.8688 0.0000
			CHANNELS 3 Zrotation Xrotation Yrotation
			JOINT LeftAnkle
			{
				OFFSET -0.0000 -44.4337 0.0000
				CHANNELS 3 Zrotation Xrotation Yrotation
				End Site
				{
					OFFSET -0.0000 -4.8889 16.6222
				}
			}
		}
	}
	JOINT RightHip
	{
		OFFSET -11.7333 0.0000 0.0000
		CHANNELS 3 Zrotation Xrotation Yrotation
		JOINT RightKnee
		{
			OFFSET -0.0000 -40.8688 0.0000
			CHANNELS 3 Zrotation Xrotation Yrotation
			JOINT RightAnkle
			{
				OFFSET -0.0000 -44.4337 0.0000
				CHANNELS 3 Zrotation Xrotation Yrotation
				End Site
				{
					OFFSET -0.0000 -4.8889 16.6222
				}
			}
		}
	}
}
MOTION
Frames: 8
Frame Time: 0.010000
1.2300 84.5492 77.9796 0.9594 353.1016 186.4231 2.6518 8.2287 353.2295 5.0143 8.5049 353.0478 7.6399 343.0008 2.9887 354.3218 10.9885 2.4292 337.9461 358.2164 9.0803 332.2283 52.8193 322.8667 36.8685 348.4855 325.9180 84.0287 355.0322 6.7331 19.5772 358.6107 352.1020 63.4218 32.8797 356.2822 341.8040 355.3781 28.1678 280.2547 352.8735 25.0715 3.9616 6.6284 352.8136 358.9991 13.0613 354.1134 352.7040 339.5551 21.0797 0.9471 321.1148 6.5854 2.9802 37.8577 2.2022 354.0034 350.9045 336.8879 
1.4260 84.6028 77.5791 0.9542 353.0020 186.4057 2.6942 8.2091 353.2479 4.9755 8.5251 353.0705 7.6083 343.1036 3.0065 354.4528 10.9069 2.4396 337.9520 358.2173 9.1426 332.0241 52.7155 323.0058 36.7701 348.4949 325.9302 84.0473 354.9716 6.6477 19.5828 358.6343 352.3007 63.1276 33.3198 356.6628 341.6982 355.3578 28.1696 280.0168 352.9541 24.6621 4.0391 6.6287 352.9752 359.0154 13.2700 354.0586 353.0234 339.7475 21.2331 1.2263 321.2174 6.6328 2.8161 38.0087 2.4882 353.7819 350.6423 336.7031 
1.6046 84.6696 77.1825 0.9306 352.8861 186.3958 2.7356 8.1379 353.2636 4.8985 8.5496 353.0921 7.5887 343.1822 3.0027 354.5506 10.8704 2.4279 338.0066 358.2300 9.0362 331.0977 52.2319 323.8413 36.3864 348.5774 325.6378 84.0571 354.9835 6.1820 19.5943 358.6609 352.4713 62.8873 33.6384 357.0332 341.5577 355.3029 28.1803 279.8227 353.0063 24.3672 4.0809 6.5775 353.2349 359.0617 13.5291 353.9722 352.8835 339.9531 21.1917 1.4399 321.3299 6.6574 2.6659 38.1164 2.7750 353.5796 350.4201 336.5487 
1.7802 84.7429 76.7809 0.9136 352.8000 186.3958 2.7615 8.0575 353.2870 4.8433 8.5667 353.1188 7.5550 343.2742 2.9816 354.6175 10.8602 2.4093 337.9804 358.2356 9.1213 331.1736 52.3932 323.7274 36.3881 348.5286 325.8651 84.0367 354.9041 6.2566 19.6064 358.6904 352.6095 62.6071 33.8162 357.4252 341.4806 355.2878 28.1907 279.7490 352.9338 24.2453 4.1382 6.5391 353.3864 359.0463 13.7991 354.0472 352.5935 340.1063 21.1350 1.6459 321.4868 6.6799 2.5368 38.1891 2.9673 353.4214 350.1573 336.4374 
1.9566 84.8392 76.3737 0.9240 352.7157 186.4237 2.7927 7.9416 353.3132 4.8105 8.5955 353.1455 7.5240 343.2981 2.9593 354.6635 10.9189 2.3915 337.9986 358.2419 9.0366 330.3578 52.0680 324.4381 36.0545 348.6320 325.5726 84.3468 355.1455 6.1587 19.6184 358.7143 352.6922 62.2989 33.9430 357.8383 341.3681 355.2393 28.3175 279.7763 352.9596 24.1721 4.2258 6.5251 353.5331 359.0479 13.9555 354.0491 352.3933 340.2296 21.2208 1.8649 321.7038 6.7258 2.4302 38.1586 3.1283 353.2274 349.9584 336.3031 
2.1204 84.9307 76.0079 0.9244 352.6332 186.4801 2.8008 7.8056 353.3358 4.7871 8.6567 353.1643 7.5028 343.2546 2.9322 354.7163 10.9786 2.3633 338.0066 358.2301 9.0810 330.1167 52.1678 324.5996 36.0885 348.6015 325.5734 84.4090 355.2052 6.3229 19.6135 358.7407 352.7265 62.0251 34.0463 358.2744 341.2950 355.1976 28.3927 279.6858 352.9811 24.1510 4.2938 6.4837 353.6774 359.0575 14.0661 354.0789 351.9314 340.3187 21.1981 2.0352 321.9093 6.7198 2.3070 38.1029 3.2823 353.0489 349.7982 336.1882 
2.2557 84.9937 75.7622 0.9178 352.5956 186.4988 2.7837 7.7297 353.3829 4.7541 8.6675 353.2103 7.4737 343.2557 2.9065 354.7952 10.9538 2.3343 338.0057 358.2259 9.0985 329.8439 52.1098 324.8110 36.0247 348.5912 325.5242 84.4827 355.2814 6.2720 19.5970 358.7481 352.7820 61.8946 34.0297 358.4726 341.1957 355.1747 28.4957 279.6754 353.0153 24.1537 4.3588 6.5097 353.7721 359.0334 14.0088 354.2732 351.6959 340.5954 21.0707 2.1720 322.0925 6.8136 2.2738 38.0247 3.3044 352.9680 349.6933 336.1136 
2.4045 85.1324 75.3854 0.8564 352.4219 186.5150 2.7451 7.5321 353.4329 4.6693 8.5950 353.2621 7.4267 343.3502 2.8520 354.8732 10.8916 2.2809 338.0126 358.2296 9.1196 329.3959 52.1025 325.2068 35.8334 348.6584 325.5978 84.4265 355.3414 6.1079 19.6046 358.7722 352.8373 61.6848 34.1553 358.9016 340.9850 355.1062 28.5074 279.6847 352.8621 24.0410 4.3152 6.3508 353.9977 359.0835 13.9512 354.2606 351.2364 340.9033 20.9715 2.2821 322.2493 6.7927 2.1245 37.9361 3.5689 352.6921 349.5289 335.9410 
